<svg width="17" height="16" viewBox="0 0 17 16" fill="none" xmlns="http://www.w3.org/2000/svg">
<rect width="17" height="16" fill="#1E1E1E"/>
<g id="landing page - mockup" clip-path="url(#clip0_8_2)">
<rect width="1280" height="5125" transform="translate(-266 -4423)" fill="#F5F4F9"/>
<g id="user review section">
<g id="review item">
<g id="review" filter="url(#filter0_d_8_2)">
<rect x="-119" y="-181.5" width="297" height="296" rx="6" fill="white" shape-rendering="crispEdges"/>
<g id="Frame 21">
<g id="star">
<path id="Vector" d="M15.9829 5.78193L11.1864 5.09758L9.04222 0.830127C8.98365 0.713287 8.88731 0.618702 8.76829 0.561209C8.46981 0.41655 8.1071 0.537099 7.95786 0.830127L5.8137 5.09758L1.01721 5.78193C0.884974 5.80047 0.76407 5.86167 0.671503 5.95441C0.559595 6.06733 0.497928 6.21924 0.500053 6.37678C0.502179 6.53431 0.567922 6.68457 0.682838 6.79454L4.15316 10.1161L3.33328 14.8064C3.31405 14.9156 3.32635 15.0278 3.36878 15.1304C3.41121 15.233 3.48207 15.3218 3.57333 15.3869C3.66459 15.452 3.77259 15.4906 3.88509 15.4985C3.9976 15.5064 4.1101 15.4831 4.20983 15.4314L8.50004 13.217L12.7902 15.4314C12.9074 15.4926 13.0434 15.513 13.1737 15.4908C13.5024 15.4352 13.7235 15.1291 13.6668 14.8064L12.8469 10.1161L16.3172 6.79454C16.4117 6.70367 16.474 6.58497 16.4929 6.45515C16.5439 6.13059 16.3135 5.83015 15.9829 5.78193Z" fill="#EDAB00"/>
</g>
</g>
</g>
</g>
</g>
</g>
<defs>
<filter id="filter0_d_8_2" x="-129" y="-183.5" width="317" height="316" filterUnits="userSpaceOnUse" color-interpolation-filters="sRGB">
<feFlood flood-opacity="0" result="BackgroundImageFix"/>
<feColorMatrix in="SourceAlpha" type="matrix" values="0 0 0 0 0 0 0 0 0 0 0 0 0 0 0 0 0 0 127 0" result="hardAlpha"/>
<feOffset dy="8"/>
<feGaussianBlur stdDeviation="5"/>
<feComposite in2="hardAlpha" operator="out"/>
<feColorMatrix type="matrix" values="0 0 0 0 0.641667 0 0 0 0 0.641667 0 0 0 0 0.641667 0 0 0 0.07 0"/>
<feBlend mode="normal" in2="BackgroundImageFix" result="effect1_dropShadow_8_2"/>
<feBlend mode="normal" in="SourceGraphic" in2="effect1_dropShadow_8_2" result="shape"/>
</filter>
<clipPath id="clip0_8_2">
<rect width="1280" height="5125" fill="white" transform="translate(-266 -4423)"/>
</clipPath>
</defs>
</svg>
